# xmcd
#
# Track frame offsets:
#	150
#	21147
#	40900
#	59467
#	75242
#	92267
#	109125
#	129015
#	145870
#	164292
#	182435
#	196762
#	211985
#
# Disc length: 2993 seconds
#
# Revision: 1350586919
# Processed by: cddbd v1.5.2PL0 Copyright (c) Steve Scherf et al.
# Submitted via: EZCDAudioConverter 3.1.5.1
#
DISCID=980baf0d
DTITLE=Χάρις Αλεξίου - Το παιχνίδι της αγάπης
DYEAR=1998
DGENRE=entexno
TTITLE0=Δώσ' μου μια μέρα
TTITLE1=Ρομάντζο
TTITLE2=Χειμώνας
TTITLE3=Ένας φαντάρος σ' ένα τρένο
TTITLE4=Οι δικοί μου ξένοι
TTITLE5=Η ραπτομηχανή
TTITLE6=Μητέρα, φίλη μου παλιά
TTITLE7=Όνειρα, αγόρια μου
TTITLE8=Ρεμπέτικος σκοπός
TTITLE9=Έλα κοντά μου απόψε
TTITLE10=Η παλιά αγορά
TTITLE11=Χαμένα χρόνια
TTITLE12=Αποχαιρετισμός (οργανικό)
EXTD=
EXTT0=
EXTT1=
EXTT2=
EXTT3=
EXTT4=
EXTT5=
EXTT6=
EXTT7=
EXTT8=
EXTT9=
EXTT10=
EXTT11=
EXTT12=
PLAYORDER=
